<svg xmlns="http://www.w3.org/2000/svg" viewBox="0 0 512 512">
  <defs>
    <linearGradient id="g1" x1="0%" y1="0%" x2="100%" y2="100%">
      <stop offset="0%" stop-color="#6366f1"/>
      <stop offset="100%" stop-color="#8b5cf6"/>
    </linearGradient>
    <linearGradient id="g2" x1="0%" y1="0%" x2="100%" y2="100%">
      <stop offset="0%" stop-color="#818cf8"/>
      <stop offset="100%" stop-color="#a78bfa"/>
    </linearGradient>
    <filter id="shadow" x="-10%" y="-10%" width="120%" height="120%">
      <feDropShadow dx="0" dy="4" stdDeviation="8" flood-color="#000" flood-opacity="0.3"/>
    </filter>
  </defs>
  <rect width="512" height="512" rx="108" fill="url(#g1)" filter="url(#shadow)"/>
  <rect x="24" y="24" width="464" height="464" rx="88" fill="none" stroke="rgba(255,255,255,0.15)" stroke-width="3"/>
  <!-- Chat bubble -->
  <path d="M128 180 C128 158 146 140 168 140 L344 140 C366 140 384 158 384 180 L384 296 C384 318 366 336 344 336 L220 336 L172 376 L172 336 L168 336 C146 336 128 318 128 296 Z" fill="rgba(255,255,255,0.95)"/>
  <!-- Dots -->
  <circle cx="210" cy="238" r="16" fill="url(#g2)"/>
  <circle cx="256" cy="238" r="16" fill="url(#g1)"/>
  <circle cx="302" cy="238" r="16" fill="url(#g2)"/>
</svg>
